<svg xmlns="http://www.w3.org/2000/svg" xmlns:xlink="http://www.w3.org/1999/xlink" contentStyleType="text/css" data-diagram-type="CLASS" height="681px" preserveAspectRatio="none" style="width:1108px;height:681px;background:#FFFFFF;" version="1.1" viewBox="0 0 1108 681" width="1108px" zoomAndPan="magnify"><defs/><g><!--class Pacijent--><g class="entity" data-entity="Pacijent" data-source-line="2" data-uid="ent0002" id="entity_Pacijent"><rect fill="#F1F1F1" height="113.1875" rx="2.5" ry="2.5" style="stroke:#181818;stroke-width:0.5;" width="206.6533" x="375.5" y="205"/><ellipse cx="446.8398" cy="221" fill="#ADD1B2" rx="11" ry="11" style="stroke:#181818;stroke-width:1;"/><path d="M449.8086,226.6406 Q449.2305,226.9375 448.5898,227.0781 Q447.9492,227.2344 447.2461,227.2344 Q444.7461,227.2344 443.418,225.5938 Q442.1055,223.9375 442.1055,220.8125 Q442.1055,217.6875 443.418,216.0313 Q444.7461,214.375 447.2461,214.375 Q447.9492,214.375 448.5898,214.5313 Q449.2461,214.6875 449.8086,214.9844 L449.8086,217.7031 Q449.1836,217.125 448.5898,216.8594 Q447.9961,216.5781 447.3711,216.5781 Q446.0273,216.5781 445.3398,217.6563 Q444.6523,218.7188 444.6523,220.8125 Q444.6523,222.9063 445.3398,223.9844 Q446.0273,225.0469 447.3711,225.0469 Q447.9961,225.0469 448.5898,224.7813 Q449.1836,224.5 449.8086,223.9219 L449.8086,226.6406 Z " fill="#000000"/><text fill="#000000" font-family="sans-serif" font-size="14" lengthAdjust="spacing" textLength="55.4736" x="467.3398" y="225.8467">Pacijent</text><line style="stroke:#181818;stroke-width:0.5;" x1="376.5" x2="581.1533" y1="237" y2="237"/><ellipse cx="386.5" cy="250.6484" fill="none" rx="3" ry="3" style="stroke:#038048;stroke-width:1;"/><text fill="#000000" font-family="sans-serif" font-size="14" lengthAdjust="spacing" textLength="86.0166" x="395.5" y="253.9951">JMBG: string</text><ellipse cx="386.5" cy="266.9453" fill="none" rx="3" ry="3" style="stroke:#038048;stroke-width:1;"/><text fill="#000000" font-family="sans-serif" font-size="14" lengthAdjust="spacing" textLength="75.7354" x="395.5" y="270.292">Ime: string</text><ellipse cx="386.5" cy="283.2422" fill="none" rx="3" ry="3" style="stroke:#038048;stroke-width:1;"/><text fill="#000000" font-family="sans-serif" font-size="14" lengthAdjust="spacing" textLength="105.6563" x="395.5" y="286.5889">Prezime: string</text><ellipse cx="386.5" cy="299.5391" fill="none" rx="3" ry="3" style="stroke:#038048;stroke-width:1;"/><text fill="#000000" font-family="sans-serif" font-size="14" lengthAdjust="spacing" textLength="180.6533" x="395.5" y="302.8857">ZdravstvenaKnjizica: bool</text><line style="stroke:#181818;stroke-width:0.5;" x1="376.5" x2="581.1533" y1="310.1875" y2="310.1875"/></g><!--class Pregled--><g class="entity" data-entity="Pregled" data-source-line="9" data-uid="ent0003" id="entity_Pregled"><rect fill="#F1F1F1" height="113.1875" rx="2.5" ry="2.5" style="stroke:#181818;stroke-width:0.5;" width="158.3506" x="7" y="403.5"/><ellipse cx="55.3813" cy="419.5" fill="#ADD1B2" rx="11" ry="11" style="stroke:#181818;stroke-width:1;"/><path d="M58.3501,425.1406 Q57.772,425.4375 57.1313,425.5781 Q56.4907,425.7344 55.7876,425.7344 Q53.2876,425.7344 51.9595,424.0938 Q50.647,422.4375 50.647,419.3125 Q50.647,416.1875 51.9595,414.5313 Q53.2876,412.875 55.7876,412.875 Q56.4907,412.875 57.1313,413.0313 Q57.7876,413.1875 58.3501,413.4844 L58.3501,416.2031 Q57.7251,415.625 57.1313,415.3594 Q56.5376,415.0781 55.9126,415.0781 Q54.5688,415.0781 53.8813,416.1563 Q53.1938,417.2188 53.1938,419.3125 Q53.1938,421.4063 53.8813,422.4844 Q54.5688,423.5469 55.9126,423.5469 Q56.5376,423.5469 57.1313,423.2813 Q57.7251,423 58.3501,422.4219 L58.3501,425.1406 Z " fill="#000000"/><text fill="#000000" font-family="sans-serif" font-size="14" lengthAdjust="spacing" textLength="53.0879" x="75.8813" y="424.3467">Pregled</text><line style="stroke:#181818;stroke-width:0.5;" x1="8" x2="164.3506" y1="435.5" y2="435.5"/><ellipse cx="18" cy="449.1484" fill="none" rx="3" ry="3" style="stroke:#038048;stroke-width:1;"/><text fill="#000000" font-family="sans-serif" font-size="14" lengthAdjust="spacing" textLength="42.3281" x="27" y="452.4951">ID: int</text><ellipse cx="18" cy="465.4453" fill="none" rx="3" ry="3" style="stroke:#038048;stroke-width:1;"/><text fill="#000000" font-family="sans-serif" font-size="14" lengthAdjust="spacing" textLength="124.6807" x="27" y="468.792">Datum: DateTime</text><ellipse cx="18" cy="481.7422" fill="none" rx="3" ry="3" style="stroke:#038048;stroke-width:1;"/><text fill="#000000" font-family="sans-serif" font-size="14" lengthAdjust="spacing" textLength="132.3506" x="27" y="485.0889">TipPregleda: string</text><ellipse cx="18" cy="498.0391" fill="none" rx="3" ry="3" style="stroke:#038048;stroke-width:1;"/><text fill="#000000" font-family="sans-serif" font-size="14" lengthAdjust="spacing" textLength="93.9668" x="27" y="501.3857">Status: string</text><line style="stroke:#181818;stroke-width:0.5;" x1="8" x2="164.3506" y1="508.6875" y2="508.6875"/></g><!--class Uput--><g class="entity" data-entity="Uput" data-source-line="16" data-uid="ent0004" id="entity_Uput"><rect fill="#F1F1F1" height="113.1875" rx="2.5" ry="2.5" style="stroke:#181818;stroke-width:0.5;" width="179.6514" x="200" y="403.5"/><ellipse cx="268.8276" cy="419.5" fill="#ADD1B2" rx="11" ry="11" style="stroke:#181818;stroke-width:1;"/><path d="M271.7964,425.1406 Q271.2183,425.4375 270.5776,425.5781 Q269.937,425.7344 269.2339,425.7344 Q266.7339,425.7344 265.4058,424.0938 Q264.0933,422.4375 264.0933,419.3125 Q264.0933,416.1875 265.4058,414.5313 Q266.7339,412.875 269.2339,412.875 Q269.937,412.875 270.5776,413.0313 Q271.2339,413.1875 271.7964,413.4844 L271.7964,416.2031 Q271.1714,415.625 270.5776,415.3594 Q269.9839,415.0781 269.3589,415.0781 Q268.0151,415.0781 267.3276,416.1563 Q266.6401,417.2188 266.6401,419.3125 Q266.6401,421.4063 267.3276,422.4844 Q268.0151,423.5469 269.3589,423.5469 Q269.9839,423.5469 270.5776,423.2813 Q271.1714,423 271.7964,422.4219 L271.7964,425.1406 Z " fill="#000000"/><text fill="#000000" font-family="sans-serif" font-size="14" lengthAdjust="spacing" textLength="33.4961" x="289.3276" y="424.3467">Uput</text><line style="stroke:#181818;stroke-width:0.5;" x1="201" x2="378.6514" y1="435.5" y2="435.5"/><ellipse cx="211" cy="449.1484" fill="none" rx="3" ry="3" style="stroke:#038048;stroke-width:1;"/><text fill="#000000" font-family="sans-serif" font-size="14" lengthAdjust="spacing" textLength="42.3281" x="220" y="452.4951">ID: int</text><ellipse cx="211" cy="465.4453" fill="none" rx="3" ry="3" style="stroke:#038048;stroke-width:1;"/><text fill="#000000" font-family="sans-serif" font-size="14" lengthAdjust="spacing" textLength="97.8018" x="220" y="468.792">PacijentID: int</text><ellipse cx="211" cy="481.7422" fill="none" rx="3" ry="3" style="stroke:#038048;stroke-width:1;"/><text fill="#000000" font-family="sans-serif" font-size="14" lengthAdjust="spacing" textLength="128.9395" x="220" y="485.0889">Specijalista: string</text><ellipse cx="211" cy="498.0391" fill="none" rx="3" ry="3" style="stroke:#038048;stroke-width:1;"/><text fill="#000000" font-family="sans-serif" font-size="14" lengthAdjust="spacing" textLength="153.6514" x="220" y="501.3857">PDFDokument: binary</text><line style="stroke:#181818;stroke-width:0.5;" x1="201" x2="378.6514" y1="508.6875" y2="508.6875"/></g><!--class Notifikacija--><g class="entity" data-entity="Notifikacija" data-source-line="23" data-uid="ent0005" id="entity_Notifikacija"><rect fill="#F1F1F1" height="113.1875" rx="2.5" ry="2.5" style="stroke:#181818;stroke-width:0.5;" width="127.2813" x="415.5" y="403.5"/><ellipse cx="438.2867" cy="419.5" fill="#ADD1B2" rx="11" ry="11" style="stroke:#181818;stroke-width:1;"/><path d="M441.2554,425.1406 Q440.6773,425.4375 440.0367,425.5781 Q439.396,425.7344 438.6929,425.7344 Q436.1929,425.7344 434.8648,424.0938 Q433.5523,422.4375 433.5523,419.3125 Q433.5523,416.1875 434.8648,414.5313 Q436.1929,412.875 438.6929,412.875 Q439.396,412.875 440.0367,413.0313 Q440.6929,413.1875 441.2554,413.4844 L441.2554,416.2031 Q440.6304,415.625 440.0367,415.3594 Q439.4429,415.0781 438.8179,415.0781 Q437.4742,415.0781 436.7867,416.1563 Q436.0992,417.2188 436.0992,419.3125 Q436.0992,421.4063 436.7867,422.4844 Q437.4742,423.5469 438.8179,423.5469 Q439.4429,423.5469 440.0367,423.2813 Q440.6304,423 441.2554,422.4219 L441.2554,425.1406 Z " fill="#000000"/><text fill="#000000" font-family="sans-serif" font-size="14" lengthAdjust="spacing" textLength="77.9775" x="454.017" y="424.3467">Notifikacija</text><line style="stroke:#181818;stroke-width:0.5;" x1="416.5" x2="541.7813" y1="435.5" y2="435.5"/><ellipse cx="426.5" cy="449.1484" fill="none" rx="3" ry="3" style="stroke:#038048;stroke-width:1;"/><text fill="#000000" font-family="sans-serif" font-size="14" lengthAdjust="spacing" textLength="42.3281" x="435.5" y="452.4951">ID: int</text><ellipse cx="426.5" cy="465.4453" fill="none" rx="3" ry="3" style="stroke:#038048;stroke-width:1;"/><text fill="#000000" font-family="sans-serif" font-size="14" lengthAdjust="spacing" textLength="70.4922" x="435.5" y="468.792">Tip: enum</text><ellipse cx="426.5" cy="481.7422" fill="none" rx="3" ry="3" style="stroke:#038048;stroke-width:1;"/><text fill="#000000" font-family="sans-serif" font-size="14" lengthAdjust="spacing" textLength="101.2813" x="435.5" y="485.0889">Sadrzaj: string</text><ellipse cx="426.5" cy="498.0391" fill="none" rx="3" ry="3" style="stroke:#038048;stroke-width:1;"/><text fill="#000000" font-family="sans-serif" font-size="14" lengthAdjust="spacing" textLength="83.6855" x="435.5" y="501.3857">Status: bool</text><line style="stroke:#181818;stroke-width:0.5;" x1="416.5" x2="541.7813" y1="508.6875" y2="508.6875"/></g><!--class Dete--><g class="entity" data-entity="Dete" data-source-line="31" data-uid="ent0006" id="entity_Dete"><rect fill="#F1F1F1" height="113.1875" rx="2.5" ry="2.5" style="stroke:#181818;stroke-width:0.5;" width="177.0127" x="548.5" y="7"/><ellipse cx="616.0083" cy="23" fill="#ADD1B2" rx="11" ry="11" style="stroke:#181818;stroke-width:1;"/><path d="M618.9771,28.6406 Q618.3989,28.9375 617.7583,29.0781 Q617.1177,29.2344 616.4146,29.2344 Q613.9146,29.2344 612.5864,27.5938 Q611.2739,25.9375 611.2739,22.8125 Q611.2739,19.6875 612.5864,18.0313 Q613.9146,16.375 616.4146,16.375 Q617.1177,16.375 617.7583,16.5313 Q618.4146,16.6875 618.9771,16.9844 L618.9771,19.7031 Q618.3521,19.125 617.7583,18.8594 Q617.1646,18.5781 616.5396,18.5781 Q615.1958,18.5781 614.5083,19.6563 Q613.8208,20.7188 613.8208,22.8125 Q613.8208,24.9063 614.5083,25.9844 Q615.1958,27.0469 616.5396,27.0469 Q617.1646,27.0469 617.7583,26.7813 Q618.3521,26.5 618.9771,25.9219 L618.9771,28.6406 Z " fill="#000000"/><text fill="#000000" font-family="sans-serif" font-size="14" lengthAdjust="spacing" textLength="33.4961" x="636.5083" y="27.8467">Dete</text><line style="stroke:#181818;stroke-width:0.5;" x1="549.5" x2="724.5127" y1="39" y2="39"/><ellipse cx="559.5" cy="52.6484" fill="none" rx="3" ry="3" style="stroke:#038048;stroke-width:1;"/><text fill="#000000" font-family="sans-serif" font-size="14" lengthAdjust="spacing" textLength="86.0166" x="568.5" y="55.9951">JMBG: string</text><ellipse cx="559.5" cy="68.9453" fill="none" rx="3" ry="3" style="stroke:#038048;stroke-width:1;"/><text fill="#000000" font-family="sans-serif" font-size="14" lengthAdjust="spacing" textLength="75.7354" x="568.5" y="72.292">Ime: string</text><ellipse cx="559.5" cy="85.2422" fill="none" rx="3" ry="3" style="stroke:#038048;stroke-width:1;"/><text fill="#000000" font-family="sans-serif" font-size="14" lengthAdjust="spacing" textLength="105.6563" x="568.5" y="88.5889">Prezime: string</text><ellipse cx="559.5" cy="101.5391" fill="none" rx="3" ry="3" style="stroke:#038048;stroke-width:1;"/><text fill="#000000" font-family="sans-serif" font-size="14" lengthAdjust="spacing" textLength="151.0127" x="568.5" y="104.8857">DatumRodjenja: Date</text><line style="stroke:#181818;stroke-width:0.5;" x1="549.5" x2="724.5127" y1="112.1875" y2="112.1875"/></g><!--class ZahtevZaUpis--><g class="entity" data-entity="ZahtevZaUpis" data-source-line="38" data-uid="ent0007" id="entity_ZahtevZaUpis"><rect fill="#F1F1F1" height="129.4844" rx="2.5" ry="2.5" style="stroke:#181818;stroke-width:0.5;" width="231.2627" x="736.5" y="197"/><ellipse cx="798.9224" cy="213" fill="#ADD1B2" rx="11" ry="11" style="stroke:#181818;stroke-width:1;"/><path d="M801.8911,218.6406 Q801.313,218.9375 800.6724,219.0781 Q800.0317,219.2344 799.3286,219.2344 Q796.8286,219.2344 795.5005,217.5938 Q794.188,215.9375 794.188,212.8125 Q794.188,209.6875 795.5005,208.0313 Q796.8286,206.375 799.3286,206.375 Q800.0317,206.375 800.6724,206.5313 Q801.3286,206.6875 801.8911,206.9844 L801.8911,209.7031 Q801.2661,209.125 800.6724,208.8594 Q800.0786,208.5781 799.4536,208.5781 Q798.1099,208.5781 797.4224,209.6563 Q796.7349,210.7188 796.7349,212.8125 Q796.7349,214.9063 797.4224,215.9844 Q798.1099,217.0469 799.4536,217.0469 Q800.0786,217.0469 800.6724,216.7813 Q801.2661,216.5 801.8911,215.9219 L801.8911,218.6406 Z " fill="#000000"/><text fill="#000000" font-family="sans-serif" font-size="14" lengthAdjust="spacing" textLength="97.918" x="819.4224" y="217.8467">ZahtevZaUpis</text><line style="stroke:#181818;stroke-width:0.5;" x1="737.5" x2="966.7627" y1="229" y2="229"/><ellipse cx="747.5" cy="242.6484" fill="none" rx="3" ry="3" style="stroke:#038048;stroke-width:1;"/><text fill="#000000" font-family="sans-serif" font-size="14" lengthAdjust="spacing" textLength="42.3281" x="756.5" y="245.9951">ID: int</text><ellipse cx="747.5" cy="258.9453" fill="none" rx="3" ry="3" style="stroke:#038048;stroke-width:1;"/><text fill="#000000" font-family="sans-serif" font-size="14" lengthAdjust="spacing" textLength="75.8242" x="756.5" y="262.292">DeteID: int</text><ellipse cx="747.5" cy="275.2422" fill="none" rx="3" ry="3" style="stroke:#038048;stroke-width:1;"/><text fill="#000000" font-family="sans-serif" font-size="14" lengthAdjust="spacing" textLength="93.9668" x="756.5" y="278.5889">Status: string</text><ellipse cx="747.5" cy="291.5391" fill="none" rx="3" ry="3" style="stroke:#038048;stroke-width:1;"/><text fill="#000000" font-family="sans-serif" font-size="14" lengthAdjust="spacing" textLength="205.2627" x="756.5" y="294.8857">DatumPodnosenja: DateTime</text><line style="stroke:#181818;stroke-width:0.5;" x1="737.5" x2="966.7627" y1="302.1875" y2="302.1875"/><ellipse cx="747.5" cy="315.8359" fill="#84BE84" rx="3" ry="3" style="stroke:#038048;stroke-width:1;"/><text fill="#000000" font-family="sans-serif" font-size="14" lengthAdjust="spacing" textLength="95.6963" x="756.5" y="319.1826">dodeliMesto()</text></g><!--class Vrtic--><g class="entity" data-entity="Vrtic" data-source-line="46" data-uid="ent0008" id="entity_Vrtic"><rect fill="#F1F1F1" height="113.1875" rx="2.5" ry="2.5" style="stroke:#181818;stroke-width:0.5;" width="192.6055" x="760.5" y="7"/><ellipse cx="836.3481" cy="23" fill="#ADD1B2" rx="11" ry="11" style="stroke:#181818;stroke-width:1;"/><path d="M839.3169,28.6406 Q838.7388,28.9375 838.0981,29.0781 Q837.4575,29.2344 836.7544,29.2344 Q834.2544,29.2344 832.9263,27.5938 Q831.6138,25.9375 831.6138,22.8125 Q831.6138,19.6875 832.9263,18.0313 Q834.2544,16.375 836.7544,16.375 Q837.4575,16.375 838.0981,16.5313 Q838.7544,16.6875 839.3169,16.9844 L839.3169,19.7031 Q838.6919,19.125 838.0981,18.8594 Q837.5044,18.5781 836.8794,18.5781 Q835.5356,18.5781 834.8481,19.6563 Q834.1606,20.7188 834.1606,22.8125 Q834.1606,24.9063 834.8481,25.9844 Q835.5356,27.0469 836.8794,27.0469 Q837.5044,27.0469 838.0981,26.7813 Q838.6919,26.5 839.3169,25.9219 L839.3169,28.6406 Z " fill="#000000"/><text fill="#000000" font-family="sans-serif" font-size="14" lengthAdjust="spacing" textLength="32.4092" x="856.8481" y="27.8467">Vrtic</text><line style="stroke:#181818;stroke-width:0.5;" x1="761.5" x2="952.1055" y1="39" y2="39"/><ellipse cx="771.5" cy="52.6484" fill="none" rx="3" ry="3" style="stroke:#038048;stroke-width:1;"/><text fill="#000000" font-family="sans-serif" font-size="14" lengthAdjust="spacing" textLength="42.3281" x="780.5" y="55.9951">ID: int</text><ellipse cx="771.5" cy="68.9453" fill="none" rx="3" ry="3" style="stroke:#038048;stroke-width:1;"/><text fill="#000000" font-family="sans-serif" font-size="14" lengthAdjust="spacing" textLength="87.9307" x="780.5" y="72.292">Naziv: string</text><ellipse cx="771.5" cy="85.2422" fill="none" rx="3" ry="3" style="stroke:#038048;stroke-width:1;"/><text fill="#000000" font-family="sans-serif" font-size="14" lengthAdjust="spacing" textLength="93.8232" x="780.5" y="88.5889">Kapacitet: int</text><ellipse cx="771.5" cy="101.5391" fill="none" rx="3" ry="3" style="stroke:#038048;stroke-width:1;"/><text fill="#000000" font-family="sans-serif" font-size="14" lengthAdjust="spacing" textLength="166.6055" x="780.5" y="104.8857">BrojSlobodnihMesta: int</text><line style="stroke:#181818;stroke-width:0.5;" x1="761.5" x2="952.1055" y1="112.1875" y2="112.1875"/></g><!--class PotvrdaUpisa--><g class="entity" data-entity="PotvrdaUpisa" data-source-line="53" data-uid="ent0009" id="entity_PotvrdaUpisa"><rect fill="#F1F1F1" height="96.8906" rx="2.5" ry="2.5" style="stroke:#181818;stroke-width:0.5;" width="179.6514" x="759" y="411.5"/><ellipse cx="798.6379" cy="427.5" fill="#ADD1B2" rx="11" ry="11" style="stroke:#181818;stroke-width:1;"/><path d="M801.6067,433.1406 Q801.0286,433.4375 800.3879,433.5781 Q799.7473,433.7344 799.0442,433.7344 Q796.5442,433.7344 795.2161,432.0938 Q793.9036,430.4375 793.9036,427.3125 Q793.9036,424.1875 795.2161,422.5313 Q796.5442,420.875 799.0442,420.875 Q799.7473,420.875 800.3879,421.0313 Q801.0442,421.1875 801.6067,421.4844 L801.6067,424.2031 Q800.9817,423.625 800.3879,423.3594 Q799.7942,423.0781 799.1692,423.0781 Q797.8254,423.0781 797.1379,424.1563 Q796.4504,425.2188 796.4504,427.3125 Q796.4504,429.4063 797.1379,430.4844 Q797.8254,431.5469 799.1692,431.5469 Q799.7942,431.5469 800.3879,431.2813 Q800.9817,431 801.6067,430.4219 L801.6067,433.1406 Z " fill="#000000"/><text fill="#000000" font-family="sans-serif" font-size="14" lengthAdjust="spacing" textLength="92.9004" x="818.113" y="432.3467">PotvrdaUpisa</text><line style="stroke:#181818;stroke-width:0.5;" x1="760" x2="937.6514" y1="443.5" y2="443.5"/><ellipse cx="770" cy="457.1484" fill="none" rx="3" ry="3" style="stroke:#038048;stroke-width:1;"/><text fill="#000000" font-family="sans-serif" font-size="14" lengthAdjust="spacing" textLength="42.3281" x="779" y="460.4951">ID: int</text><ellipse cx="770" cy="473.4453" fill="none" rx="3" ry="3" style="stroke:#038048;stroke-width:1;"/><text fill="#000000" font-family="sans-serif" font-size="14" lengthAdjust="spacing" textLength="91.7588" x="779" y="476.792">ZahtevID: int</text><ellipse cx="770" cy="489.7422" fill="none" rx="3" ry="3" style="stroke:#038048;stroke-width:1;"/><text fill="#000000" font-family="sans-serif" font-size="14" lengthAdjust="spacing" textLength="153.6514" x="779" y="493.0889">PDFDokument: binary</text><line style="stroke:#181818;stroke-width:0.5;" x1="760" x2="937.6514" y1="500.3906" y2="500.3906"/></g><!--class Obavestenje--><g class="entity" data-entity="Obavestenje" data-source-line="59" data-uid="ent0010" id="entity_Obavestenje"><rect fill="#F1F1F1" height="113.1875" rx="2.5" ry="2.5" style="stroke:#181818;stroke-width:0.5;" width="127.2813" x="974.5" y="403.5"/><ellipse cx="992.7063" cy="419.5" fill="#ADD1B2" rx="11" ry="11" style="stroke:#181818;stroke-width:1;"/><path d="M995.675,425.1406 Q995.0969,425.4375 994.4563,425.5781 Q993.8156,425.7344 993.1125,425.7344 Q990.6125,425.7344 989.2844,424.0938 Q987.9719,422.4375 987.9719,419.3125 Q987.9719,416.1875 989.2844,414.5313 Q990.6125,412.875 993.1125,412.875 Q993.8156,412.875 994.4563,413.0313 Q995.1125,413.1875 995.675,413.4844 L995.675,416.2031 Q995.05,415.625 994.4563,415.3594 Q993.8625,415.0781 993.2375,415.0781 Q991.8938,415.0781 991.2063,416.1563 Q990.5188,417.2188 990.5188,419.3125 Q990.5188,421.4063 991.2063,422.4844 Q991.8938,423.5469 993.2375,423.5469 Q993.8625,423.5469 994.4563,423.2813 Q995.05,423 995.675,422.4219 L995.675,425.1406 Z " fill="#000000"/><text fill="#000000" font-family="sans-serif" font-size="14" lengthAdjust="spacing" textLength="88.1563" x="1007.4188" y="424.3467">Obavestenje</text><line style="stroke:#181818;stroke-width:0.5;" x1="975.5" x2="1100.7813" y1="435.5" y2="435.5"/><ellipse cx="985.5" cy="449.1484" fill="none" rx="3" ry="3" style="stroke:#038048;stroke-width:1;"/><text fill="#000000" font-family="sans-serif" font-size="14" lengthAdjust="spacing" textLength="42.3281" x="994.5" y="452.4951">ID: int</text><ellipse cx="985.5" cy="465.4453" fill="none" rx="3" ry="3" style="stroke:#038048;stroke-width:1;"/><text fill="#000000" font-family="sans-serif" font-size="14" lengthAdjust="spacing" textLength="70.4922" x="994.5" y="468.792">Tip: enum</text><ellipse cx="985.5" cy="481.7422" fill="none" rx="3" ry="3" style="stroke:#038048;stroke-width:1;"/><text fill="#000000" font-family="sans-serif" font-size="14" lengthAdjust="spacing" textLength="101.2813" x="994.5" y="485.0889">Sadrzaj: string</text><ellipse cx="985.5" cy="498.0391" fill="none" rx="3" ry="3" style="stroke:#038048;stroke-width:1;"/><text fill="#000000" font-family="sans-serif" font-size="14" lengthAdjust="spacing" textLength="83.6855" x="994.5" y="501.3857">Status: bool</text><line style="stroke:#181818;stroke-width:0.5;" x1="975.5" x2="1100.7813" y1="508.6875" y2="508.6875"/></g><!--class Korisnik--><g class="entity" data-entity="Korisnik" data-source-line="67" data-uid="ent0011" id="entity_Korisnik"><rect fill="#F1F1F1" height="145.7813" rx="2.5" ry="2.5" style="stroke:#181818;stroke-width:0.5;" width="131.6563" x="578" y="387"/><ellipse cx="612.8453" cy="403" fill="#ADD1B2" rx="11" ry="11" style="stroke:#181818;stroke-width:1;"/><path d="M615.814,408.6406 Q615.2359,408.9375 614.5953,409.0781 Q613.9546,409.2344 613.2515,409.2344 Q610.7515,409.2344 609.4234,407.5938 Q608.1109,405.9375 608.1109,402.8125 Q608.1109,399.6875 609.4234,398.0313 Q610.7515,396.375 613.2515,396.375 Q613.9546,396.375 614.5953,396.5313 Q615.2515,396.6875 615.814,396.9844 L615.814,399.7031 Q615.189,399.125 614.5953,398.8594 Q614.0015,398.5781 613.3765,398.5781 Q612.0328,398.5781 611.3453,399.6563 Q610.6578,400.7188 610.6578,402.8125 Q610.6578,404.9063 611.3453,405.9844 Q612.0328,407.0469 613.3765,407.0469 Q614.0015,407.0469 614.5953,406.7813 Q615.189,406.5 615.814,405.9219 L615.814,408.6406 Z " fill="#000000"/><text fill="#000000" font-family="sans-serif" font-size="14" lengthAdjust="spacing" textLength="55.5557" x="631.2553" y="407.8467">Korisnik</text><line style="stroke:#181818;stroke-width:0.5;" x1="579" x2="708.6563" y1="419" y2="419"/><ellipse cx="589" cy="432.6484" fill="none" rx="3" ry="3" style="stroke:#038048;stroke-width:1;"/><text fill="#000000" font-family="sans-serif" font-size="14" lengthAdjust="spacing" textLength="42.3281" x="598" y="435.9951">ID: int</text><ellipse cx="589" cy="448.9453" fill="none" rx="3" ry="3" style="stroke:#038048;stroke-width:1;"/><text fill="#000000" font-family="sans-serif" font-size="14" lengthAdjust="spacing" textLength="75.7354" x="598" y="452.292">Ime: string</text><ellipse cx="589" cy="465.2422" fill="none" rx="3" ry="3" style="stroke:#038048;stroke-width:1;"/><text fill="#000000" font-family="sans-serif" font-size="14" lengthAdjust="spacing" textLength="105.6563" x="598" y="468.5889">Prezime: string</text><ellipse cx="589" cy="481.5391" fill="none" rx="3" ry="3" style="stroke:#038048;stroke-width:1;"/><text fill="#000000" font-family="sans-serif" font-size="14" lengthAdjust="spacing" textLength="88.1973" x="598" y="484.8857">Email: string</text><line style="stroke:#181818;stroke-width:0.5;" x1="579" x2="708.6563" y1="492.1875" y2="492.1875"/><ellipse cx="589" cy="505.8359" fill="#84BE84" rx="3" ry="3" style="stroke:#038048;stroke-width:1;"/><text fill="#000000" font-family="sans-serif" font-size="14" lengthAdjust="spacing" textLength="58.3447" x="598" y="509.1826">Prijava()</text><ellipse cx="589" cy="522.1328" fill="#84BE84" rx="3" ry="3" style="stroke:#038048;stroke-width:1;"/><text fill="#000000" font-family="sans-serif" font-size="14" lengthAdjust="spacing" textLength="60.1631" x="598" y="525.4795">Odjava()</text></g><!--class SSO--><g class="entity" data-entity="SSO" data-source-line="76" data-uid="ent0012" id="entity_SSO"><rect fill="#F1F1F1" height="80.5938" rx="2.5" ry="2.5" style="stroke:#181818;stroke-width:0.5;" width="136.291" x="576" y="594"/><ellipse cx="625.499" cy="610" fill="#ADD1B2" rx="11" ry="11" style="stroke:#181818;stroke-width:1;"/><path d="M628.4678,615.6406 Q627.8896,615.9375 627.249,616.0781 Q626.6084,616.2344 625.9053,616.2344 Q623.4053,616.2344 622.0771,614.5938 Q620.7646,612.9375 620.7646,609.8125 Q620.7646,606.6875 622.0771,605.0313 Q623.4053,603.375 625.9053,603.375 Q626.6084,603.375 627.249,603.5313 Q627.9053,603.6875 628.4678,603.9844 L628.4678,606.7031 Q627.8428,606.125 627.249,605.8594 Q626.6553,605.5781 626.0303,605.5781 Q624.6865,605.5781 623.999,606.6563 Q623.3115,607.7188 623.3115,609.8125 Q623.3115,611.9063 623.999,612.9844 Q624.6865,614.0469 626.0303,614.0469 Q626.6553,614.0469 627.249,613.7813 Q627.8428,613.5 628.4678,612.9219 L628.4678,615.6406 Z " fill="#000000"/><text fill="#000000" font-family="sans-serif" font-size="14" lengthAdjust="spacing" textLength="28.793" x="645.999" y="614.8467">SSO</text><line style="stroke:#181818;stroke-width:0.5;" x1="577" x2="711.291" y1="626" y2="626"/><line style="stroke:#181818;stroke-width:0.5;" x1="577" x2="711.291" y1="634" y2="634"/><ellipse cx="587" cy="647.6484" fill="#84BE84" rx="3" ry="3" style="stroke:#038048;stroke-width:1;"/><text fill="#000000" font-family="sans-serif" font-size="14" lengthAdjust="spacing" textLength="110.291" x="596" y="650.9951">autentifikacija()</text><ellipse cx="587" cy="663.9453" fill="#84BE84" rx="3" ry="3" style="stroke:#038048;stroke-width:1;"/><text fill="#000000" font-family="sans-serif" font-size="14" lengthAdjust="spacing" textLength="92.0596" x="596" y="667.292">autorizacija()</text></g><!--link Pacijent to Pregled--><g class="link" data-entity-1="Pacijent" data-entity-2="Pregled" data-source-line="82" data-uid="lnk13" id="link_Pacijent_Pregled"><path codeLine="82" d="M375.35,298.72 C316.9,320.91 243.49,351.77 182,387 C173.32,391.97 164.52,397.61 155.96,403.49" fill="none" id="Pacijent-Pregled" style="stroke:#181818;stroke-width:1;"/><text fill="#000000" font-family="sans-serif" font-size="13" lengthAdjust="spacing" textLength="8.271" x="359.1317" y="298.0602">1</text><text fill="#000000" font-family="sans-serif" font-size="13" lengthAdjust="spacing" textLength="23.0356" x="140.43" y="392.3521">0..*</text></g><!--link Pacijent to Uput--><g class="link" data-entity-1="Pacijent" data-entity-2="Uput" data-source-line="83" data-uid="lnk14" id="link_Pacijent_Uput"><path codeLine="83" d="M425.6,318.02 C399.95,344.69 369.28,376.58 343.6,403.28" fill="none" id="Pacijent-Uput" style="stroke:#181818;stroke-width:1;"/><text fill="#000000" font-family="sans-serif" font-size="13" lengthAdjust="spacing" textLength="8.271" x="410.2852" y="338.286">1</text><text fill="#000000" font-family="sans-serif" font-size="13" lengthAdjust="spacing" textLength="23.0356" x="325.7544" y="392.5167">0..*</text></g><!--link Pacijent to Notifikacija--><g class="link" data-entity-1="Pacijent" data-entity-2="Notifikacija" data-source-line="84" data-uid="lnk15" id="link_Pacijent_Notifikacija"><path codeLine="84" d="M479,318.02 C479,344.69 479,376.58 479,403.28" fill="none" id="Pacijent-Notifikacija" style="stroke:#181818;stroke-width:1;"/><text fill="#000000" font-family="sans-serif" font-size="13" lengthAdjust="spacing" textLength="8.271" x="470.5271" y="338.286">1</text><text fill="#000000" font-family="sans-serif" font-size="13" lengthAdjust="spacing" textLength="23.0356" x="454.5835" y="392.5167">0..*</text></g><!--link Dete to ZahtevZaUpis--><g class="link" data-entity-1="Dete" data-entity-2="ZahtevZaUpis" data-source-line="87" data-uid="lnk16" id="link_Dete_ZahtevZaUpis"><path codeLine="87" d="M698.04,120.14 C724.23,144.02 754.98,172.06 782.09,196.77" fill="none" id="Dete-ZahtevZaUpis" style="stroke:#181818;stroke-width:1;"/><text fill="#000000" font-family="sans-serif" font-size="13" lengthAdjust="spacing" textLength="8.271" x="697.3648" y="140.4213">1</text><text fill="#000000" font-family="sans-serif" font-size="13" lengthAdjust="spacing" textLength="23.0356" x="750.1734" y="185.9175">0..*</text></g><!--link Vrtic to ZahtevZaUpis--><g class="link" data-entity-1="Vrtic" data-entity-2="ZahtevZaUpis" data-source-line="88" data-uid="lnk17" id="link_Vrtic_ZahtevZaUpis"><path codeLine="88" d="M855.58,120.14 C854.97,144.02 854.26,172.06 853.63,196.77" fill="none" id="Vrtic-ZahtevZaUpis" style="stroke:#181818;stroke-width:1;"/><text fill="#000000" font-family="sans-serif" font-size="13" lengthAdjust="spacing" textLength="8.271" x="846.9282" y="140.4213">1</text><text fill="#000000" font-family="sans-serif" font-size="13" lengthAdjust="spacing" textLength="23.0356" x="829.5381" y="185.9175">0..*</text></g><!--link ZahtevZaUpis to PotvrdaUpisa--><g class="link" data-entity-1="ZahtevZaUpis" data-entity-2="PotvrdaUpisa" data-source-line="89" data-uid="lnk18" id="link_ZahtevZaUpis_PotvrdaUpisa"><path codeLine="89" d="M851.03,326.03 C850.61,353.72 850.12,385.64 849.73,411.27" fill="none" id="ZahtevZaUpis-PotvrdaUpisa" style="stroke:#181818;stroke-width:1;"/><text fill="#000000" font-family="sans-serif" font-size="13" lengthAdjust="spacing" textLength="8.271" x="842.4558" y="346.405">1</text><text fill="#000000" font-family="sans-serif" font-size="13" lengthAdjust="spacing" textLength="8.271" x="841.3137" y="400.4466">1</text></g><!--link ZahtevZaUpis to Obavestenje--><g class="link" data-entity-1="ZahtevZaUpis" data-entity-2="Obavestenje" data-source-line="90" data-uid="lnk19" id="link_ZahtevZaUpis_Obavestenje"><path codeLine="90" d="M912.13,326.03 C935.69,350.92 962.49,379.22 985.28,403.3" fill="none" id="ZahtevZaUpis-Obavestenje" style="stroke:#181818;stroke-width:1;"/><text fill="#000000" font-family="sans-serif" font-size="13" lengthAdjust="spacing" textLength="8.271" x="910.6205" y="346.405">1</text><text fill="#000000" font-family="sans-serif" font-size="13" lengthAdjust="spacing" textLength="23.0356" x="954.4382" y="392.5392">0..*</text></g><!--link Dete to Pacijent--><g class="link" data-entity-1="Dete" data-entity-2="Pacijent" data-source-line="93" data-uid="lnk20" id="link_Dete_Pacijent"><path codeLine="93" d="M592.15,120.14 C570.8,146.62 545.33,178.22 523.97,204.72" fill="none" id="Dete-Pacijent" style="stroke:#181818;stroke-width:1;"/><text fill="#000000" font-family="sans-serif" font-size="13" lengthAdjust="spacing" textLength="34.0425" x="569" y="163.0669">JMBG</text><text fill="#000000" font-family="sans-serif" font-size="13" lengthAdjust="spacing" textLength="8.271" x="577.9076" y="140.4213">1</text><text fill="#000000" font-family="sans-serif" font-size="13" lengthAdjust="spacing" textLength="8.271" x="521.0009" y="193.9494">1</text></g><!--link Korisnik to SSO--><g class="link" data-entity-1="Korisnik" data-entity-2="SSO" data-source-line="96" data-uid="lnk21" id="link_Korisnik_SSO"><path codeLine="96" d="M644,533.16 C644,553.84 644,569.63 644,587.6" fill="none" id="Korisnik-to-SSO" style="stroke:#181818;stroke-width:1;"/><polygon fill="#181818" points="644,593.6,648,584.6,644,588.6,640,584.6,644,593.6" style="stroke:#181818;stroke-width:1;"/></g><!--link Pacijent to Korisnik--><g class="link" data-entity-1="Pacijent" data-entity-2="Korisnik" data-source-line="97" data-uid="lnk22" id="link_Pacijent_Korisnik"><path codeLine="97" d="M525.62,318.02 C543.54,339.36 560.402,359.4348 579.452,382.1248" fill="none" id="Pacijent-to-Korisnik" style="stroke:#181818;stroke-width:1;"/><polygon fill="#181818" points="583.31,386.72,580.5864,377.2552,580.095,382.8907,574.4595,382.3992,583.31,386.72" style="stroke:#181818;stroke-width:1;"/></g><!--link Dete to Korisnik--><g class="link" data-entity-1="Dete" data-entity-2="Korisnik" data-source-line="98" data-uid="lnk23" id="link_Dete_Korisnik"><path codeLine="98" d="M637.99,120.19 C639.23,190.06 641.2538,304.0409 642.6138,380.8709" fill="none" id="Dete-to-Korisnik" style="stroke:#181818;stroke-width:1;"/><polygon fill="#181818" points="642.72,386.87,646.5601,377.8006,642.6315,381.8708,638.5613,377.9422,642.72,386.87" style="stroke:#181818;stroke-width:1;"/></g><!--SRC=[hLHBRjim4Dth58GtwGSEsgqMNGHgYzH8R5H95jwDpMb2VKY3f0HKHG_H8_GkxRqwb4oAWfmK2B8I-JXyRpwFEcDRhg4rjbN9lW9Zs0Rsea1fsO-4iRTVhYu-fynOBUIzsr_M66yt6ZinXJmVIbZ9GdHY3odRALKbFnCleV6-GZueN6Of4zAwPGQsgLD67xmXLWVTYCCn6cAHt5Ae2KXWlZqqTaRhAugW_824GIMCdV1kia-PAfkQeYbf8K5_7yclbHNVHEdOO2P2YQOCPLFtzC1r1yMfZ7qdpbmN-D_VfQfCYQoXHAHgyIYLeSNd3g3lubV5gUG2XcwEDMpXmMAxXTk3CFF-ashSf6cJFVL6SQdCIEv7nHN7IboXiUhLwr7nJbkndqbTGoVQc7e51sgiHHj2BhGgyahjI4uyE5eOZaORATjgtfSodyTGQEo2fqQxta5B2bGKli1aytpD35aBwoFzIcbXf2XdtF-VviSQH3MD8VkrG2scpPeVrw4IfzshG4FbZ8OTuWcaL3gFzDdUOOVHNo2y_yNx1LiksUBT-VcRXN-pZnsxX_VOMVnkWk1fz_U-dzwE7PiCPdeYOE9l7qUVs2kdWmQoo0WXLT7L-ETNmmpgrbsV9EcuVTafSwyrt2DNqZIICFpbyaCFX7W7-DE1DKR-0G00]--></g></svg>