<svg xmlns="http://www.w3.org/2000/svg" xmlns:xlink="http://www.w3.org/1999/xlink" contentStyleType="text/css" data-diagram-type="DESCRIPTION" height="705px" preserveAspectRatio="none" style="width:1517px;height:705px;background:#FFFFFF;" version="1.1" viewBox="0 0 1517 705" width="1517px" zoomAndPan="magnify"><defs/><g><!--cluster Servis Zdravstvo--><g class="cluster" data-entity="Servis Zdravstvo" data-source-line="6" data-uid="ent0005" id="cluster_Servis Zdravstvo"><path d="M1187.5,6 L1321.5342,6 A3.75,3.75 0 0 1 1324.0342,8.5 L1331.0342,28.2969 L1507.5,28.2969 A2.5,2.5 0 0 1 1510,30.7969 L1510,488.5 A2.5,2.5 0 0 1 1507.5,491 L1187.5,491 A2.5,2.5 0 0 1 1185,488.5 L1185,8.5 A2.5,2.5 0 0 1 1187.5,6" fill="none" style="stroke:#000000;stroke-width:1.5;"/><line style="stroke:#000000;stroke-width:1.5;" x1="1185" x2="1331.0342" y1="28.2969" y2="28.2969"/><text fill="#000000" font-family="sans-serif" font-size="14" font-weight="bold" lengthAdjust="spacing" textLength="133.0342" x="1189" y="20.9951">Servis Zdravstvo</text></g><!--cluster Servis Pred?kolske ustanove--><g class="cluster" data-entity="Servis Pred&#353;kolske ustanove" data-source-line="14" data-uid="ent0011" id="cluster_Servis Pred&#353;kolske ustanove"><path d="M556.5,114 L784.5146,114 A3.75,3.75 0 0 1 787.0146,116.5 L794.0146,136.2969 L915.5,136.2969 A2.5,2.5 0 0 1 918,138.7969 L918,588.5 A2.5,2.5 0 0 1 915.5,591 L556.5,591 A2.5,2.5 0 0 1 554,588.5 L554,116.5 A2.5,2.5 0 0 1 556.5,114" fill="none" style="stroke:#000000;stroke-width:1.5;"/><line style="stroke:#000000;stroke-width:1.5;" x1="554" x2="794.0146" y1="136.2969" y2="136.2969"/><text fill="#000000" font-family="sans-serif" font-size="14" font-weight="bold" lengthAdjust="spacing" textLength="227.0146" x="558" y="128.9951">Servis Pred&#353;kolske ustanove</text></g><!--cluster SSO Sistem--><g class="cluster" data-entity="SSO Sistem" data-source-line="22" data-uid="ent0017" id="cluster_SSO Sistem"><path d="M151.5,526 L243.4316,526 A3.75,3.75 0 0 1 245.9316,528.5 L252.9316,548.2969 L367.5,548.2969 A2.5,2.5 0 0 1 370,550.7969 L370,695.5 A2.5,2.5 0 0 1 367.5,698 L151.5,698 A2.5,2.5 0 0 1 149,695.5 L149,528.5 A2.5,2.5 0 0 1 151.5,526" fill="none" style="stroke:#000000;stroke-width:1.5;"/><line style="stroke:#000000;stroke-width:1.5;" x1="149" x2="252.9316" y1="548.2969" y2="548.2969"/><text fill="#000000" font-family="sans-serif" font-size="14" font-weight="bold" lengthAdjust="spacing" textLength="90.9316" x="153" y="540.9951">SSO Sistem</text></g><!--entity UC1--><g class="entity" data-entity="UC1" data-source-line="7" data-uid="ent0006" id="entity_UC1"><ellipse cx="1347.5791" cy="360.8158" fill="#F1F1F1" rx="119.5791" ry="26.3158" style="stroke:#181818;stroke-width:0.5;"/><text fill="#000000" font-family="sans-serif" font-size="14" lengthAdjust="spacing" textLength="218.4561" x="1238.3511" y="365.4643">Zakazivanje lekarskih pregleda</text></g><!--entity UC2--><g class="entity" data-entity="UC2" data-source-line="8" data-uid="ent0007" id="entity_UC2"><ellipse cx="1347.509" cy="71.9018" fill="#F1F1F1" rx="142.509" ry="30.9018" style="stroke:#181818;stroke-width:0.5;"/><text fill="#000000" font-family="sans-serif" font-size="14" lengthAdjust="spacing" textLength="266.8545" x="1214.0817" y="76.5502">Generisanje elektronskog uputa (PDF)</text></g><!--entity UC3--><g class="entity" data-entity="UC3" data-source-line="9" data-uid="ent0008" id="entity_UC3"><ellipse cx="1347.3164" cy="448.9633" fill="#F1F1F1" rx="117.8164" ry="25.9633" style="stroke:#181818;stroke-width:0.5;"/><text fill="#000000" font-family="sans-serif" font-size="14" lengthAdjust="spacing" textLength="214.6895" x="1239.9717" y="453.6117">Validacija zdravstvene knji&#382;ice</text></g><!--entity UC4--><g class="entity" data-entity="UC4" data-source-line="10" data-uid="ent0009" id="entity_UC4"><ellipse cx="1347.6399" cy="268.228" fill="#F1F1F1" rx="146.6399" ry="31.728" style="stroke:#181818;stroke-width:0.5;"/><text fill="#000000" font-family="sans-serif" font-size="14" lengthAdjust="spacing" textLength="275.4814" x="1209.8992" y="272.8764">Slanje SMS/e-mail notifikacija pacijentu</text></g><!--entity UC5--><g class="entity" data-entity="UC5" data-source-line="11" data-uid="ent0010" id="entity_UC5"><ellipse cx="1347.4146" cy="169.9829" fill="#F1F1F1" rx="145.4146" ry="31.4829" style="stroke:#181818;stroke-width:0.5;"/><text fill="#000000" font-family="sans-serif" font-size="14" lengthAdjust="spacing" textLength="272.9248" x="1210.9522" y="174.6314">Evidencija dolaska pacijenta (check-in)</text></g><!--entity UC6--><g class="entity" data-entity="UC6" data-source-line="15" data-uid="ent0012" id="entity_UC6"><ellipse cx="736.0509" cy="549.0102" fill="#F1F1F1" rx="115.5509" ry="25.5102" style="stroke:#181818;stroke-width:0.5;"/><text fill="#000000" font-family="sans-serif" font-size="14" lengthAdjust="spacing" textLength="209.8359" x="631.1329" y="553.6586">Elektronski upis deteta u vrti&#263;</text></g><!--entity UC7--><g class="entity" data-entity="UC7" data-source-line="16" data-uid="ent0013" id="entity_UC7"><ellipse cx="735.9459" cy="177.0892" fill="#F1F1F1" rx="125.9459" ry="27.5892" style="stroke:#181818;stroke-width:0.5;"/><text fill="#000000" font-family="sans-serif" font-size="14" lengthAdjust="spacing" textLength="231.998" x="619.9469" y="181.7376">Provera slobodnih mesta u vrti&#263;u</text></g><!--entity UC8--><g class="entity" data-entity="UC8" data-source-line="17" data-uid="ent0014" id="entity_UC8"><ellipse cx="735.8828" cy="453.0766" fill="#F1F1F1" rx="165.8828" ry="35.5766" style="stroke:#181818;stroke-width:0.5;"/><text fill="#000000" font-family="sans-serif" font-size="14" lengthAdjust="spacing" textLength="315.4102" x="578.1778" y="457.725">Automatska dodela mesta (po kriterijumima)</text></g><!--entity UC9--><g class="entity" data-entity="UC9" data-source-line="18" data-uid="ent0015" id="entity_UC9"><ellipse cx="736.0626" cy="267.9125" fill="#F1F1F1" rx="130.0626" ry="28.4125" style="stroke:#181818;stroke-width:0.5;"/><text fill="#000000" font-family="sans-serif" font-size="14" lengthAdjust="spacing" textLength="240.707" x="615.709" y="272.5609">Generisanje potvrde o upisu (PDF)</text></g><!--entity UC10--><g class="entity" data-entity="UC10" data-source-line="19" data-uid="ent0016" id="entity_UC10"><ellipse cx="736.2403" cy="357.2481" fill="#F1F1F1" rx="116.7403" ry="25.7481" style="stroke:#181818;stroke-width:0.5;"/><text fill="#000000" font-family="sans-serif" font-size="14" lengthAdjust="spacing" textLength="212.3857" x="630.0474" y="361.8965">Slanje obave&#353;tenja roditeljima</text></g><!--entity UC11--><g class="entity" data-entity="UC11" data-source-line="23" data-uid="ent0018" id="entity_UC11"><ellipse cx="259.4577" cy="581.9915" fill="#F1F1F1" rx="92.9577" ry="20.9915" style="stroke:#181818;stroke-width:0.5;"/><text fill="#000000" font-family="sans-serif" font-size="14" lengthAdjust="spacing" textLength="160.4053" x="179.2551" y="586.64">Prijava / autentifikacija</text></g><!--entity UC12--><g class="entity" data-entity="UC12" data-source-line="24" data-uid="ent0019" id="entity_UC12"><ellipse cx="259.6163" cy="659.8233" fill="#F1F1F1" rx="94.6163" ry="21.3233" style="stroke:#181818;stroke-width:0.5;"/><text fill="#000000" font-family="sans-serif" font-size="14" lengthAdjust="spacing" textLength="164.1172" x="177.5577" y="664.4717">Upravljanje korisnicima</text></g><!--entity Roditelj--><g class="entity" data-entity="Roditelj" data-source-line="2" data-uid="ent0002" id="entity_Roditelj"><ellipse cx="53.9756" cy="309.5" fill="#F1F1F1" rx="8" ry="8" style="stroke:#181818;stroke-width:0.5;"/><path d="M53.9756,317.5 L53.9756,344.5 M40.9756,325.5 L66.9756,325.5 M53.9756,344.5 L40.9756,359.5 M53.9756,344.5 L66.9756,359.5" fill="none" style="stroke:#181818;stroke-width:0.5;"/><text fill="#000000" font-family="sans-serif" font-size="14" lengthAdjust="spacing" textLength="52.9512" x="27.5" y="373.9951">Roditelj</text></g><!--entity Lekar--><g class="entity" data-entity="Lekar" data-source-line="3" data-uid="ent0003" id="entity_Lekar"><ellipse cx="735.9277" cy="30.5" fill="#F1F1F1" rx="8" ry="8" style="stroke:#181818;stroke-width:0.5;"/><path d="M735.9277,38.5 L735.9277,65.5 M722.9277,46.5 L748.9277,46.5 M735.9277,65.5 L722.9277,80.5 M735.9277,65.5 L748.9277,80.5" fill="none" style="stroke:#181818;stroke-width:0.5;"/><text fill="#000000" font-family="sans-serif" font-size="14" lengthAdjust="spacing" textLength="38.8555" x="716.5" y="94.9951">Lekar</text></g><!--entity Administrator--><g class="entity" data-entity="Administrator" data-source-line="4" data-uid="ent0004" id="entity_Administrator"><ellipse cx="53.8413" cy="514.5" fill="#F1F1F1" rx="8" ry="8" style="stroke:#181818;stroke-width:0.5;"/><path d="M53.8413,522.5 L53.8413,549.5 M40.8413,530.5 L66.8413,530.5 M53.8413,549.5 L40.8413,564.5 M53.8413,549.5 L66.8413,564.5" fill="none" style="stroke:#181818;stroke-width:0.5;"/><text fill="#000000" font-family="sans-serif" font-size="14" lengthAdjust="spacing" textLength="95.6826" x="6" y="578.9951">Administrator</text></g><!--link Roditelj to UC11--><g class="link" data-entity-1="Roditelj" data-entity-2="UC11" data-source-line="28" data-uid="lnk20" id="link_Roditelj_UC11"><path d="M80.77,369.78 C122.91,420.09 201.5877,514.04 237.3977,556.8" fill="none" id="Roditelj-to-UC11" style="stroke:#181818;stroke-width:1;"/><polygon fill="#181818" points="241.25,561.4,238.5382,551.9318,238.0397,557.5667,232.4049,557.0683,241.25,561.4" style="stroke:#181818;stroke-width:1;"/></g><!--link Roditelj to UC6--><g class="link" data-entity-1="Roditelj" data-entity-2="UC6" data-source-line="29" data-uid="lnk21" id="link_Roditelj_UC6"><path d="M80.52,348.74 C152.76,376.07 365.15,454.82 546,506 C579.84,515.58 611.6801,523.2111 644.4601,530.4211" fill="none" id="Roditelj-to-UC6" style="stroke:#181818;stroke-width:1;"/><polygon fill="#181818" points="650.32,531.71,642.3894,525.87,645.4367,530.6359,640.6708,533.6833,650.32,531.71" style="stroke:#181818;stroke-width:1;"/></g><!--link Roditelj to UC7--><g class="link" data-entity-1="Roditelj" data-entity-2="UC7" data-source-line="30" data-uid="lnk22" id="link_Roditelj_UC7"><path d="M80.67,313.82 C96.71,299.56 118.54,282.69 141,273 C293.86,207.03 480.6182,186.3143 604.3482,179.8243" fill="none" id="Roditelj-to-UC7" style="stroke:#181818;stroke-width:1;"/><polygon fill="#181818" points="610.34,179.51,601.1428,175.9869,605.3469,179.7719,601.5619,183.9759,610.34,179.51" style="stroke:#181818;stroke-width:1;"/></g><!--link Roditelj to UC9--><g class="link" data-entity-1="Roditelj" data-entity-2="UC9" data-source-line="31" data-uid="lnk23" id="link_Roditelj_UC9"><path d="M80.68,329.85 C95.5,324.94 114.58,319.26 132,316 C293.81,285.74 477.5434,274.7417 600.3434,270.6117" fill="none" id="Roditelj-to-UC9" style="stroke:#181818;stroke-width:1;"/><polygon fill="#181818" points="606.34,270.41,597.2106,266.7148,601.3428,270.5781,597.4795,274.7103,606.34,270.41" style="stroke:#181818;stroke-width:1;"/></g><!--link Roditelj to UC10--><g class="link" data-entity-1="Roditelj" data-entity-2="UC10" data-source-line="32" data-uid="lnk24" id="link_Roditelj_UC10"><path d="M80.83,339.68 C168.28,342 450.9021,349.4812 614.0421,353.8012" fill="none" id="Roditelj-to-UC10" style="stroke:#181818;stroke-width:1;"/><polygon fill="#181818" points="620.04,353.96,611.149,349.7232,615.0418,353.8276,610.9373,357.7204,620.04,353.96" style="stroke:#181818;stroke-width:1;"/></g><!--link Lekar to UC1--><g class="link" data-entity-1="Lekar" data-entity-2="UC1" data-source-line="34" data-uid="lnk25" id="link_Lekar_UC1"><path d="M755.66,63.09 C792.05,69.94 873.54,89.36 926,133 C931.22,137.34 928.83,141.6 934,146 C1020.03,219.25 1101.2,152.61 1169,243 C1188.85,269.46 1155.38,291.96 1177,317 C1191.9,334.26 1206.8925,343.3923 1228.7425,350.2123" fill="none" id="Lekar-to-UC1" style="stroke:#181818;stroke-width:1;"/><polygon fill="#181818" points="1234.47,352,1227.0706,345.5001,1229.6971,350.5102,1224.687,353.1368,1234.47,352" style="stroke:#181818;stroke-width:1;"/></g><!--link Lekar to UC2--><g class="link" data-entity-1="Lekar" data-entity-2="UC2" data-source-line="35" data-uid="lnk26" id="link_Lekar_UC2"><path d="M755.57,60.37 C822.11,61.68 1046.6812,66.1021 1199.3712,69.1021" fill="none" id="Lekar-to-UC2" style="stroke:#181818;stroke-width:1;"/><polygon fill="#181818" points="1205.37,69.22,1196.4503,65.044,1200.371,69.1218,1196.2932,73.0424,1205.37,69.22" style="stroke:#181818;stroke-width:1;"/></g><!--link Lekar to UC5--><g class="link" data-entity-1="Lekar" data-entity-2="UC5" data-source-line="36" data-uid="lnk27" id="link_Lekar_UC5"><path d="M755.57,63.35 C826.6,76.17 1078.6354,121.6543 1229.2254,148.8343" fill="none" id="Lekar-to-UC5" style="stroke:#181818;stroke-width:1;"/><polygon fill="#181818" points="1235.13,149.9,1226.9836,144.365,1230.2095,149.0119,1225.5626,152.2378,1235.13,149.9" style="stroke:#181818;stroke-width:1;"/></g><!--link Administrator to UC8--><g class="link" data-entity-1="Administrator" data-entity-2="UC8" data-source-line="38" data-uid="lnk28" id="link_Administrator_UC8"><path d="M102.01,537.71 C202.34,524.28 434.893,493.166 588.793,472.566" fill="none" id="Administrator-to-UC8" style="stroke:#181818;stroke-width:1;"/><polygon fill="#181818" points="594.74,471.77,585.2889,468.9994,589.7842,472.4333,586.3502,476.9287,594.74,471.77" style="stroke:#181818;stroke-width:1;"/></g><!--link Administrator to UC12--><g class="link" data-entity-1="Administrator" data-entity-2="UC12" data-source-line="39" data-uid="lnk29" id="link_Administrator_UC12"><path d="M90.88,582.15 C105.39,595.88 122.97,610.55 141,621 C157.64,630.65 171.303,636.468 189.453,642.358" fill="none" id="Administrator-to-UC12" style="stroke:#181818;stroke-width:1;"/><polygon fill="#181818" points="195.16,644.21,187.8342,637.6273,190.4042,642.6666,185.3648,645.2366,195.16,644.21" style="stroke:#181818;stroke-width:1;"/></g><!--link UC6 to UC3--><g class="link" data-entity-1="UC6" data-entity-2="UC3" data-source-line="42" data-uid="lnk30" id="link_UC6_UC3"><path d="M829.24,533.87 C943.55,515.11 1131.3791,484.2913 1246.5291,465.4013" fill="none" id="UC6-to-UC3" style="stroke:#181818;stroke-width:1;"/><polygon fill="#181818" points="1252.45,464.43,1242.9212,461.9397,1247.516,465.2394,1244.2162,469.8342,1252.45,464.43" style="stroke:#181818;stroke-width:1;"/><text fill="#000000" font-family="sans-serif" font-size="13" lengthAdjust="spacing" textLength="233.397" x="935" y="475.0669">Provera zdravstvene knji&#382;ice deteta</text></g><!--link UC6 to UC1--><g class="link" data-entity-1="UC6" data-entity-2="UC1" data-source-line="43" data-uid="lnk31" id="link_UC6_UC1"><path d="M850.74,545.2 C878.8,538.84 906.39,527.05 926,506 C941.94,488.89 918.05,471.1 934,454 C1009.13,373.49 1131.8405,355.4756 1225.5405,354.2956" fill="none" id="UC6-to-UC1" style="stroke:#181818;stroke-width:1;"/><polygon fill="#181818" points="1231.54,354.22,1222.4903,350.3336,1226.5404,354.283,1222.5911,358.333,1231.54,354.22" style="stroke:#181818;stroke-width:1;"/><text fill="#000000" font-family="sans-serif" font-size="13" lengthAdjust="spacing" textLength="187.6113" x="958" y="354.0669">Provera obavljenog pregleda</text></g><!--link UC9 to UC4--><g class="link" data-entity-1="UC9" data-entity-2="UC4" data-source-line="44" data-uid="lnk32" id="link_UC9_UC4"><path d="M866.26,268 C964.28,268 1093.04,268 1194.86,268" fill="none" id="UC9-to-UC4" style="stroke:#181818;stroke-width:1;"/><polygon fill="#181818" points="1200.86,268,1191.86,264,1195.86,268,1191.86,272,1200.86,268" style="stroke:#181818;stroke-width:1;"/><text fill="#000000" font-family="sans-serif" font-size="13" lengthAdjust="spacing" textLength="177.2329" x="963" y="264.0669">Slanje potvrde i notifikacije</text></g><!--link UC11 to UC1--><g class="link" data-entity-1="UC11" data-entity-2="UC1" data-source-line="46" data-uid="lnk33" id="link_UC11_UC1"><path d="M334.48,594.6 C457.98,613.46 713.56,643.28 926,608 C1038.58,589.3 1099.56,615.57 1169,525 C1185.26,503.79 1159.95,425.58 1177,405 C1191.54,387.44 1206.3847,378.1847 1228.2047,371.3447" fill="none" id="UC11-to-UC1" style="stroke:#181818;stroke-width:1;"/><polygon fill="#181818" points="1233.93,369.55,1224.1456,368.4252,1229.1589,371.0456,1226.5386,376.059,1233.93,369.55" style="stroke:#181818;stroke-width:1;"/><text fill="#000000" font-family="sans-serif" font-size="13" lengthAdjust="spacing" textLength="157.2188" x="657.5" y="604.0669">Autentifikacija pacijenta</text></g><!--link UC11 to UC6--><g class="link" data-entity-1="UC11" data-entity-2="UC6" data-source-line="47" data-uid="lnk34" id="link_UC11_UC6"><path d="M348.64,575.87 C426.9,570.43 535.5744,562.8657 619.6644,557.0257" fill="none" id="UC11-to-UC6" style="stroke:#181818;stroke-width:1;"/><polygon fill="#181818" points="625.65,556.61,616.3945,553.2432,620.662,556.9564,616.9488,561.2239,625.65,556.61" style="stroke:#181818;stroke-width:1;"/><text fill="#000000" font-family="sans-serif" font-size="13" lengthAdjust="spacing" textLength="150.7759" x="387" y="559.0669">Autentifikacija roditelja</text></g><!--SRC=[TLCzRzim4DtvAmvQcWv6lhyw50ZIj2ZGeaQDPCXs4IyEJOeKI4g3YywT-nFoHpB5_widXOefnvridkwzktltpj1zXEZ0g_b31AaybL4vAx2CpiDF9rKaiqZFRwJHf_yNib9MXUYHNqBKM6gS4nGpygqAS2izjY6she1V0g09L6BWpxUeSQbQj0i2qz45hHwWzZGt9B40371zkPyZlf0bhqAF88P4xspGRWvDtKI4dUcdp-yJxY37tQ1H4akrG5YcPfW9j5serPCgAM4ESypCz6LctsUxDAbG6R0kgdkbNtZgxeTiR1BsACTUjKgIxVEaCnZqEf-xB1-er1DbXrQFnU-teaqzoTMZTYPeOkA8rhMq8U3LgmIA5M2Gf4XSeO7MH_Ny9_6Vv9YfPnwF48oxSzAou1M533FCSvg3BfheAepT7D99CfX0ExK3xTaMNYsQIbKuZ7JslwtLBhPU4hY-uMQqilCjyhixR6dr6CcobZvPa0iDxjWRQpVx0JCs8bKRIasvGMmHTW4RvbhlSU0PsUowPe-OHT-0TjowLMLMyw2h-GvkQ4c0ElPg8bmpyfBXOZWKc4m-lb1lH4us0wURWVCt97j2z1Stl4UlWz7hM8ZHGQRmsTOe3yEZVBNT5BfpAAXbHSz_6mYz3r5mlodt43wi_RFrZf81YmoqduEwRHg-0hxOrpFdtFEKUzJbfiKFHb7vsL4XHATepdqnNkZwq8eyzMHRwk0dBFu1]--></g></svg>